<svg xmlns="http://www.w3.org/2000/svg" viewBox="0 0 162.43 37.49">
  <defs>
    <style>
      .a {
        isolation: isolate;
      }

      .b {
        mix-blend-mode: multiply;
      }

      .c {
        fill: #9a9a9b;
      }

      .d {
        fill: #0054a2;
      }

      .e {
        fill: #e5004e;
      }
    </style>
  </defs>
  <title>アセット 3</title>
  <g class="a">
    <g class="b">
      <path class="c" d="M91.9,30.41,90.48,34H87.4l2.94-3.19a1.8,1.8,0,0,1,.84-.42h.72ZM94.26,29H92.14a3.88,3.88,0,0,0-2.59,1.22L83,37.35h1.33l2.1-2.28h3.63l-.89,2.28H91s3-7.71,3.27-8.33"/>
      <path class="c" d="M119.85,37.33h-1.4c-.75,0-1.2-.23-1.37-.69a2.58,2.58,0,0,1,.28-1.53l1.13-2.89h-.9l.32-.8h.9l.72-1.79h1.67l-.71,1.78h1.7l-.32.8h-1.69l-1,2.57a2.8,2.8,0,0,0-.29,1.25c0,.23.23.34.57.34s.78,0,.78,0Z"/>
      <path class="c" d="M138.41,37.33H137c-.75,0-1.21-.23-1.37-.69a2.53,2.53,0,0,1,.28-1.53l1.14-2.89h-.9l.32-.8h.9l.73-1.79h1.67l-.69,1.78h1.68l-.32.8h-1.68l-1,2.57a2.76,2.76,0,0,0-.29,1.25c0,.23.23.34.56.34s.78,0,.78,0Z"/>
      <path class="c" d="M99.22,31.33l-.54,1.38c-.27,0-.92,0-1.09,0a1.61,1.61,0,0,0-1.28.71,6.14,6.14,0,0,0-.73,1.41l-1,2.54H92.89l2.34-5.95h1.69l-.34.87a2.77,2.77,0,0,1,1.79-.92l.86,0"/>
      <path class="c" d="M126.74,33.65c0-.07.06-.16.09-.29.27-.88,0-1.32-.73-1.32a2.23,2.23,0,0,0-2,1.6Zm1.18.76h-4.17a1.52,1.52,0,0,0,0,1.41,1.75,1.75,0,0,0,1.37.51c.69,0,1.2-.06,1.66-.08l-.42,1.08h-1.9a2.6,2.6,0,0,1-2.27-.79,2.26,2.26,0,0,1-.15-2.35,4.61,4.61,0,0,1,1.8-2.17,4.71,4.71,0,0,1,2.61-.79c1.16,0,1.85.43,1.94,1.28a5,5,0,0,1-.48,1.91h0"/>
      <path class="c" d="M110.47,37.35h-1.69l1.34-3.4a2.33,2.33,0,0,0,.23-1.12c-.08-.33-.3-.5-.79-.5H108l-.72,1.81L106,37.35h-1.7l3.44-8.73h1.71l-1,2.66h2.16c1,0,1.61.37,1.63,1.12A5.13,5.13,0,0,1,111.8,34Z"/>
      <path class="c" d="M114.25,37.35h-1.69l2.34-5.95h1.69Zm3.18-7.78a1.43,1.43,0,0,1-.53.63,1.38,1.38,0,0,1-.79.27.68.68,0,0,1-.59-.26.6.6,0,0,1-.05-.61,1.36,1.36,0,0,1,.54-.67,1.39,1.39,0,0,1,.82-.26.64.64,0,0,1,.59.26.66.66,0,0,1,0,.63"/>
      <path class="c" d="M102.74,37.31a11.76,11.76,0,0,1-2,.17,2.41,2.41,0,0,1-2.1-.86,2.23,2.23,0,0,1-.08-2.23,4.69,4.69,0,0,1,1.89-2.24,5.22,5.22,0,0,1,2.92-.89,14.85,14.85,0,0,1,1.72.1l-.48,1.22a3.94,3.94,0,0,0-1.43-.27,2.79,2.79,0,0,0-1.66.56,3.25,3.25,0,0,0-1.12,1.46,1.78,1.78,0,0,0-.05,1.53,1.28,1.28,0,0,0,1.22.58,5,5,0,0,0,1.67-.35Z"/>
      <path class="c" d="M133.18,37.31a11.57,11.57,0,0,1-2,.17,2.42,2.42,0,0,1-2.09-.86A2.23,2.23,0,0,1,129,34.4a4.8,4.8,0,0,1,1.89-2.24,5.24,5.24,0,0,1,2.93-.89,14.63,14.63,0,0,1,1.71.1L135,32.58a4,4,0,0,0-1.44-.27,2.75,2.75,0,0,0-1.66.56,3.17,3.17,0,0,0-1.12,1.46,1.75,1.75,0,0,0-.05,1.53,1.28,1.28,0,0,0,1.22.58,5,5,0,0,0,1.66-.35Z"/>
      <path class="d" d="M42.28,23.44h-3.8c-4.59,0-5.79-2.71-3.73-8.38L38.83,3.88H33s-3.15,8.65-4.07,11.18c-2.39,6.57-.15,10.34,7.93,10.34H47.42L55.25,3.88H49.4L42.28,23.44"/>
      <path class="d" d="M17.68,3.88A13.76,13.76,0,0,0,4.45,13.18L0,25.4H5.84s1.5-4.11,3.58-9.81H25.83l.71-1.95H10.13l.16-.46c2.07-5.67,5.09-7.34,8.8-7.34H29.38l.72-2H17.68c2.56,0,0,0,0,0"/>
      <polygon class="d" points="57.17 5.83 65.38 5.83 58.25 25.4 64.1 25.4 71.23 5.83 79.44 5.83 80.14 3.88 57.88 3.88 57.17 5.83"/>
      <path class="d" d="M107.92,14.74H103.6s3,6.59,3.19,6.92a5.63,5.63,0,0,0,5.65,3.73h3.85s-4.93-8.21-5.19-8.68a1.86,1.86,0,0,0-.67-.7c.91,0,.3,0,1.39,0a9.46,9.46,0,0,0,8.85-5.94c1-2.85-.45-6.18-6-6.18H98.91s-5.28,14.53-7.12,19.56H88c-4.59,0-5.79-2.71-3.72-8.38L88.34,3.88H82.49s-3.14,8.65-4.07,11.18C76,21.63,78.27,25.4,86.36,25.4H96.92L104,5.83h7.37c3.1,0,4.19,1.95,3.27,4.37s-2.29,4.54-6.76,4.54"/>
      <path class="e" d="M158.85,0a3.59,3.59,0,1,0,3.59,3.58A3.58,3.58,0,0,0,158.85,0"/>
      <path class="d" d="M146.16,7.23c-.83,2.08-3,3-4.91,3.74-2.75,1-6.73,1.54-11.93,1.62,2.77-3.45,7.11-6.89,12.54-7.68,3.59-.53,4.8,1.05,4.29,2.32m-5.4-3.31A27.86,27.86,0,0,0,126,12.65c-1.09,0-4.36,0-4.36,0l-.3.82h4A20.63,20.63,0,0,0,122,19.14c-1.87,5.08,1.81,8.86,10.7,5.78a32.24,32.24,0,0,0,13.78-9.17l.42-1A38.52,38.52,0,0,1,135,22.75c-7.06,2.77-10.59.35-8.7-5a17.36,17.36,0,0,1,2.31-4.22c5.44,0,10.62-.23,14.14-1.51,3.16-1.15,6-2.38,6.91-4.89s-2.6-4.69-8.92-3.19"/>
    </g>
  </g>
</svg>
